<svg width="237" height="44" viewBox="0 0 237 44" fill="none" xmlns="http://www.w3.org/2000/svg">
<path fill-rule="evenodd" clip-rule="evenodd" d="M21.28 43.0401C22.86 42.9701 24.49 42.9101 26.09 42.5501C21.46 27.2201 18.21 18.7401 3.96 9.68005C3.26 10.7301 2.67 11.8601 2.14 12.9601C14.86 19.7401 21.63 36.0101 21.28 43.0401Z" fill="black"/>
<path fill-rule="evenodd" clip-rule="evenodd" d="M27.6 42.17C29.36 41.62 31.09 40.9 32.84 39.88C26.48 23.74 15.69 10.31 6.5 6.64001C5.97 7.19001 5.47 7.75002 5.03 8.28002C16.46 14.48 24.03 26.29 27.6 42.17Z" fill="black"/>
<path fill-rule="evenodd" clip-rule="evenodd" d="M34.19 38.97C35.63 37.81 37.07 36.66 38.21 35.11C28.22 18.22 22.08 10.43 9.98 3.79004C9.18 4.32004 8.36 4.90004 7.66 5.53004C15.07 9.43004 28.51 21.12 34.19 38.97Z" fill="black"/>
<path fill-rule="evenodd" clip-rule="evenodd" d="M17.32 42.57C18.09 42.72 18.87 42.85 19.68 42.92C18.22 29.75 9.27 19.98 1.42 14.84C1.14 15.68 0.890001 16.53 0.720001 17.37C4.63 20.71 13.35 29.56 17.32 42.57Z" fill="black"/>
<path fill-rule="evenodd" clip-rule="evenodd" d="M39 34.1101C40.05 32.5501 41 31.0201 41.68 29.0901C34.93 16.0601 28.05 9.38005 17.37 0.740051C16.38 0.960051 15.39 1.19005 14.44 1.56005C19.95 5.52005 35.71 21.2901 39 34.1101Z" fill="black"/>
<path fill-rule="evenodd" clip-rule="evenodd" d="M42.32 27.06C42.78 24.8 43.23 22.43 42.9 19.99C38.44 13.68 27.3 2.72002 22.3 0.330024C21.33 0.310024 20.33 0.320025 19.3 0.440025C25.66 4.48002 35.35 14.85 42.32 27.06Z" fill="black"/>
<path fill-rule="evenodd" clip-rule="evenodd" d="M42.33 16.36C41.87 14.7 41.39 13.28 40.55 11.74C37.38 5.50002 31.89 2.52002 28.31 1.37002C27.1 1.01002 26.01 0.72002 24.69 0.52002C30.67 3.77002 38.6 11.87 42.33 16.36Z" fill="black"/>
<path fill-rule="evenodd" clip-rule="evenodd" d="M15.66 42.16C14.33 41.78 12.96 41.34 11.53 40.45C8.3 32.11 4.24 26.02 0.310002 22.33C0.290002 21.27 0.310001 20.18 0.430001 19.11C4.75 23.96 11.11 30.13 15.66 42.16Z" fill="black"/>
<path fill-rule="evenodd" clip-rule="evenodd" d="M6.08 36.28C7.19 37.41 8.13 38.19 9.12 38.92C7.54 35.1 2.76 28.5 0.57 24.84C0.77 26.56 1.23 28.03 1.85 29.66C2.37 31.17 4.27 34.49 6.08 36.28Z" fill="black"/>
<path d="M78.01 14.89L72.83 16.51C72.13 14.59 70.66 13.63 68.41 13.63C66 13.63 64.8 14.36 64.8 15.81C64.8 16.39 65.03 16.88 65.48 17.28C65.93 17.68 66.95 18.03 68.53 18.33C71.18 18.83 73.12 19.33 74.35 19.84C75.58 20.35 76.62 21.17 77.46 22.3C78.3 23.43 78.73 24.69 78.73 26.09C78.73 28.28 77.83 30.17 76.02 31.77C74.21 33.37 71.53 34.17 67.98 34.17C65.32 34.17 63.05 33.6 61.18 32.47C59.31 31.34 58.08 29.66 57.48 27.43L63.11 26.24C63.74 28.5 65.5 29.63 68.39 29.63C69.78 29.63 70.82 29.38 71.5 28.87C72.18 28.37 72.53 27.77 72.53 27.07C72.53 26.36 72.22 25.81 71.6 25.42C70.98 25.03 69.78 24.66 68.01 24.32C64.7 23.68 62.35 22.81 60.94 21.7C59.53 20.59 58.83 18.97 58.83 16.84C58.83 14.69 59.67 12.87 61.35 11.39C63.03 9.91004 65.31 9.17004 68.19 9.17004C73.27 9.19004 76.55 11.09 78.01 14.89Z" fill="black"/>
<path d="M92.1 34.1801C88.6 34.1801 85.89 32.9501 83.98 30.5001C82.07 28.0501 81.11 25.0801 81.11 21.6001C81.11 18.0601 82.08 15.1101 84.02 12.7401C85.96 10.3701 88.72 9.19006 92.31 9.19006C95.94 9.19006 98.67 10.4501 100.52 12.9801C102.36 15.5101 103.29 18.4001 103.29 21.6601C103.29 25.1801 102.34 28.1401 100.44 30.5601C98.53 32.9701 95.75 34.1801 92.1 34.1801ZM92.27 13.8201C89.08 13.8201 87.48 16.4401 87.48 21.6701C87.48 26.9201 89.08 29.5401 92.27 29.5401C95.36 29.5401 96.91 26.9201 96.91 21.6901C96.9 16.4501 95.36 13.8201 92.27 13.8201Z" fill="black"/>
<path d="M124.61 14.3601H112.45V19.8001H122.06V24.3301H112.45V33.8201H106.13V9.56006H124.61V14.3601Z" fill="black"/>
<path d="M146.19 9.56006V14.3601H139.76V33.8101H133.59V14.3601H127.12V9.56006H146.19Z" fill="black"/>
<path d="M168.03 9.56006V14.3601H161.6V33.8101H155.43V14.3601H148.96V9.56006H168.03Z" fill="black"/>
<path d="M188.85 14.1801H176.48V19.1501H186.21V23.7101H176.48V29.0001H188.85V33.8001H170.29V9.56006H188.85V14.1801Z" fill="black"/>
<path d="M212.33 18.58L205.95 18.95C205.86 15.53 204.43 13.82 201.66 13.82C198.48 13.82 196.89 16.45 196.89 21.72C196.89 24.76 197.32 26.83 198.19 27.91C199.06 28.99 200.26 29.54 201.81 29.54C204.33 29.54 205.87 28.01 206.43 24.96L212.33 25.3C211.95 28.2 210.79 30.41 208.86 31.92C206.92 33.43 204.56 34.19 201.75 34.19C198.31 34.19 195.52 33.08 193.36 30.87C191.21 28.66 190.13 25.59 190.13 21.69C190.13 18.03 191.17 15.03 193.25 12.7C195.33 10.37 198.17 9.20004 201.78 9.20004C208.03 9.19004 211.55 12.32 212.33 18.58Z" fill="black"/>
<path d="M225.24 34.1801C221.74 34.1801 219.03 32.9501 217.12 30.5001C215.21 28.0501 214.25 25.0801 214.25 21.6001C214.25 18.0601 215.22 15.1101 217.16 12.7401C219.1 10.3701 221.86 9.19006 225.45 9.19006C229.08 9.19006 231.81 10.4501 233.66 12.9801C235.5 15.5101 236.43 18.4001 236.43 21.6601C236.43 25.1801 235.48 28.1401 233.58 30.5601C231.68 32.9801 228.89 34.1801 225.24 34.1801ZM225.41 13.8201C222.22 13.8201 220.62 16.4401 220.62 21.6701C220.62 26.9201 222.22 29.5401 225.41 29.5401C228.5 29.5401 230.05 26.9201 230.05 21.6901C230.05 16.4501 228.5 13.8201 225.41 13.8201Z" fill="black"/>
</svg>
